<svg width="18" height="18" viewBox="0 0 18 18" fill="none" xmlns="http://www.w3.org/2000/svg">
<circle cx="9" cy="9" r="6" stroke="#FCFBF8" stroke-linecap="round" stroke-linejoin="round"/>
<path d="M13.5 6C12.2832 6.93615 10.7135 7.5 9 7.5C7.28648 7.5 5.71677 6.93615 4.5 6" stroke="#FCFBF8" stroke-linecap="round" stroke-linejoin="round"/>
<path d="M9 15C7.12769 13.3776 6 11.2847 6 9C6 6.71531 7.1277 4.62236 9 3" stroke="#FCFBF8" stroke-linecap="round" stroke-linejoin="round"/>
<path d="M13.5 12C12.2832 11.0638 10.7135 10.5 9 10.5C7.28648 10.5 5.71677 11.0638 4.5 12" stroke="#FCFBF8" stroke-linecap="round" stroke-linejoin="round"/>
<path d="M9 15C10.8723 13.3776 12 11.2847 12 9C12 6.71531 10.8723 4.62236 9 3" stroke="#FCFBF8" stroke-linecap="round" stroke-linejoin="round"/>
<path d="M9 3V15" stroke="#FCFBF8" stroke-linecap="round" stroke-linejoin="round"/>
</svg>
