<svg width="67" height="74" viewBox="0 0 67 74" fill="none" xmlns="http://www.w3.org/2000/svg">
<path d="M20.1164 53.8962V50.1366H20.9847C21.3556 50.1366 21.6422 50.1535 21.8866 50.2968C22.1985 50.4738 22.4008 50.8447 22.4008 51.2409C22.4008 51.9152 21.9203 52.3873 21.0858 52.3873H20.6559V53.8962H20.1164ZM21.0521 51.8815C21.5832 51.8815 21.8529 51.7129 21.8529 51.2662C21.8529 50.8194 21.5916 50.634 21.069 50.634H20.6559V51.8731H21.0521V51.8815Z" fill="#32312F"/>
<path d="M26.1435 53.8962H25.5703L27.037 50.1366H27.568L29.0347 53.8962H28.4363L28.0232 52.8003H26.5649L26.1435 53.8962ZM27.2983 50.8447L26.7588 52.2693H27.8293L27.2983 50.8447Z" fill="#32312F"/>
<path d="M32.769 53.8962V50.1366H33.8564C34.7752 50.1366 35.2472 50.575 35.2472 51.3505C35.2472 51.949 34.8173 52.421 34.1767 52.4463L35.2472 53.8877H34.5644L33.3169 52.1428V53.8877H32.769V53.8962ZM33.595 52.0923C34.3368 52.0923 34.7077 51.8562 34.7077 51.3505C34.7077 50.8447 34.379 50.6508 33.7215 50.6508H33.3169V52.0923H33.595Z" fill="#32312F"/>
<path d="M39.8244 50.1366H39.2765V53.8962H39.8244V50.1366Z" fill="#32312F"/>
<path d="M44.2919 52.8088C44.3088 53.2049 44.5448 53.4494 44.882 53.4494C45.2613 53.4494 45.4973 53.2049 45.4973 52.8088C45.4973 52.3873 45.2698 52.2777 44.8567 52.1513C44.587 52.0754 44.3341 52.0333 44.0981 51.7214C43.9716 51.5528 43.9042 51.3589 43.9042 51.1482C43.9042 50.4991 44.3257 50.0692 44.941 50.0692C45.5142 50.0692 45.8935 50.4401 45.9272 51.0639H45.4215C45.4046 50.7604 45.2023 50.5581 44.9241 50.5581C44.6207 50.5581 44.4184 50.7941 44.4184 51.106C44.4184 51.224 44.4521 51.3252 44.528 51.4095C44.6881 51.5949 44.9579 51.6034 45.2613 51.7129C45.7502 51.8984 46.02 52.2609 46.02 52.7582C46.02 53.4747 45.5732 53.972 44.8904 53.972C44.2582 53.972 43.8115 53.5168 43.803 52.8172H44.2919V52.8088Z" fill="#32312F"/>
<path d="M33.064 17.7593H35.9216C35.3989 17.4137 35.2051 17.2199 35.3062 16.8995C35.4411 16.4781 35.7614 16.4275 35.8878 16.4275C36.0059 16.4275 36.107 16.4612 36.2082 16.4865C36.3262 16.5202 36.4695 16.5624 36.6633 16.5624C36.8319 16.5624 37.0174 16.5286 37.2197 16.4696C38.3324 16.1156 39.0573 15.5171 39.4956 14.573C40.3217 12.7944 39.6895 10.6196 39.0067 9.10235C38.8297 8.7146 38.6274 8.32684 38.4251 7.94752C37.8097 6.77584 37.1691 5.57043 37.2281 4.03628V3.97728C37.2534 3.44622 37.2703 2.94889 37.7255 2.65386C37.9615 2.50213 38.1891 2.45999 38.3577 2.4347C38.5684 2.40098 38.5852 2.39255 38.6695 2.11438C38.7876 1.7182 38.737 1.34731 38.5431 1.07756C38.3745 0.849971 38.1132 0.715101 37.835 0.715101C37.658 0.715101 37.4051 0.774107 37.1775 1.03542C36.7392 1.54961 36.7139 2.44313 36.7223 3.24392C36.7476 4.90451 36.8066 6.21107 37.363 7.88009C37.4136 8.04024 37.481 8.20883 37.5484 8.40271C38.1132 9.99586 39.0657 12.6596 37.2028 13.7554C36.0901 14.4129 33.7552 14.4634 33.0724 14.4634C31.2601 14.4634 29.7175 14.2021 28.942 13.7554C27.0707 12.6764 28.0232 10.0043 28.588 8.40271C28.6554 8.20883 28.7229 8.03182 28.7734 7.87166C29.3298 6.20264 29.3888 4.89608 29.4141 3.23549C29.4225 2.4347 29.4056 1.54118 28.9673 1.02699C28.7397 0.757248 28.4784 0.698242 28.3098 0.698242C28.0401 0.698242 27.7703 0.833113 27.6017 1.06071C27.3994 1.33045 27.3573 1.69291 27.4753 2.09752C27.5596 2.38412 27.5765 2.38412 27.7872 2.41784C27.9558 2.44313 28.1749 2.48527 28.4194 2.637C28.8746 2.9236 28.8914 3.42937 28.9083 3.96885V4.01942C28.9673 5.55357 28.3351 6.75898 27.7198 7.92223C27.5175 8.30156 27.3151 8.68931 27.1381 9.07706C26.4638 10.5944 25.8231 12.7691 26.6492 14.5477C27.0876 15.4918 27.8125 16.0987 28.9252 16.4444C29.1275 16.5034 29.3129 16.5371 29.4815 16.5371C29.6754 16.5371 29.8102 16.4949 29.9367 16.4612C30.0378 16.4275 30.139 16.4022 30.257 16.4022C30.3919 16.4022 30.7122 16.4444 30.8386 16.8743C30.9398 17.203 30.7459 17.3969 30.2233 17.7425H33.0724L33.064 17.7593Z" fill="#32312F"/>
<path d="M31.0831 12.55C30.8892 12.55 30.7375 12.3982 30.7375 12.2044V4.66006C30.7375 4.46618 30.8892 4.31445 31.0831 4.31445C31.277 4.31445 31.4287 4.46618 31.4287 4.66006V12.2128C31.4287 12.4067 31.277 12.5584 31.0831 12.5584" fill="#32312F"/>
<path d="M33.064 12.55C32.8785 12.55 32.7184 12.3982 32.7184 12.2044V4.66006C32.7184 4.46618 32.8701 4.31445 33.064 4.31445C33.2579 4.31445 33.4096 4.46618 33.4096 4.66006V12.2128C33.4096 12.4067 33.2579 12.5584 33.064 12.5584" fill="#32312F"/>
<path d="M35.0449 12.55C34.851 12.55 34.6993 12.3982 34.6993 12.2044V4.66006C34.6993 4.46618 34.851 4.31445 35.0449 4.31445C35.2388 4.31445 35.3905 4.46618 35.3905 4.66006V12.2128C35.3905 12.4067 35.2388 12.5584 35.0449 12.5584" fill="#32312F"/>
<path d="M5.87076 37.6696H7.23633V40.6199H5.75275L5.70218 40.4681C5.37343 39.4397 4.77494 38.934 3.90672 38.934C2.86147 38.934 2.17026 39.4229 1.84151 40.4091C1.68136 40.8812 1.60549 41.3701 1.60549 41.8758C1.60549 42.5333 1.69821 43.0981 1.89209 43.5786C2.08597 44.0843 2.381 44.4468 2.76875 44.6913C3.05535 44.8598 3.36723 44.9441 3.68755 44.9441C3.76342 44.9441 3.84771 44.9441 3.932 44.9357C4.3619 44.8767 4.7328 44.6997 5.06154 44.4047C5.41558 44.0759 5.6516 43.6629 5.77804 43.1655L5.82862 42.9717L7.40491 43.2245L7.34591 43.4521C7.13517 44.2782 6.72213 44.9526 6.10679 45.4752C5.52516 45.9641 4.85924 46.2507 4.10902 46.3434C3.95729 46.3603 3.81399 46.3687 3.67069 46.3687C3.08064 46.3687 2.5243 46.2254 2.0101 45.9304C1.31046 45.5426 0.78784 44.9441 0.450664 44.1433C0.155635 43.4437 0.00390625 42.6851 0.00390625 41.8843C0.00390625 41.0076 0.172494 40.2321 0.50967 39.583C0.855275 38.9171 1.31889 38.4114 1.91738 38.0489C2.50744 37.7033 3.17336 37.5347 3.92357 37.5347C4.67379 37.5347 5.32285 37.7539 5.86234 38.1922V37.678L5.87076 37.6696Z" fill="#32312F"/>
<path d="M16.6267 44.8514H17.3432V46.217H15.6404L12.9177 42.6345H11.2571V44.8514H12.3193V46.217H8.62718V44.8514H9.68928V39.0267H8.62718V37.6611H13.5078C14.258 37.6611 14.8312 37.737 15.2443 37.8887C15.6657 38.0573 16.0029 38.3439 16.2558 38.757C16.5087 39.1616 16.6267 39.6083 16.6267 40.1057C16.6267 40.7379 16.4159 41.2773 16.0029 41.7241C15.6994 42.0444 15.2695 42.2804 14.7301 42.4322L16.6267 44.8598V44.8514ZM11.2571 41.2183H13.2971C13.7607 41.2183 14.1147 41.1762 14.3592 41.0835C14.5868 40.9992 14.7469 40.8727 14.8565 40.7041C14.9745 40.5271 15.0335 40.3248 15.0335 40.1141C15.0335 39.8106 14.9239 39.5578 14.7048 39.3639C14.4772 39.1616 14.0979 39.0604 13.5584 39.0604H11.2571V41.2352V41.2183Z" fill="#32312F"/>
<path d="M26.6829 44.8514V46.217H23.9602V44.8514H24.3143L23.9012 43.7725H21.1448L20.7571 44.8514H21.128V46.217H18.4053V44.8514H19.1049L21.6169 37.6611H23.2269L26.0423 44.8514H26.6829ZM23.4123 42.4069L22.5357 39.6589L21.6253 42.4069H23.4123Z" fill="#32312F"/>
<path d="M36.9752 39.0267V44.8514H38.0373V46.217H34.3453V44.8514H35.4495V40.603L33.5276 46.217H32.2126L30.3076 40.6114V44.8514H31.4118V46.217H27.7198V44.8514H28.7819V39.0267H27.7198V37.6696H30.8218L32.9123 44L34.9353 37.6696H38.0373V39.0267H36.9752Z" fill="#32312F"/>
<path d="M40.4144 44.8514V39.0267H39.3523V37.6611H43.7019C45.9441 37.6611 47.0568 38.5209 47.0568 40.2321C47.0568 41.1678 46.7196 41.8674 46.0537 42.3395C45.4889 42.7356 44.7303 42.9379 43.7946 42.9379H41.9823V44.8514H43.0444V46.217H39.3523V44.8514H40.4144ZM43.8115 41.4881C44.9157 41.4881 45.4636 41.0835 45.4636 40.2742C45.4636 39.8106 45.3035 39.4903 44.9916 39.3217C44.7303 39.1784 44.3341 39.1026 43.7862 39.1026H41.9739V41.4881H43.8115Z" fill="#32312F"/>
<path d="M48.9955 38.875C49.7542 37.9815 50.7657 37.5347 52.0386 37.5347C53.3114 37.5347 54.2808 37.973 55.0479 38.8497C55.7728 39.6758 56.1352 40.7126 56.1352 41.9601C56.1352 43.2077 55.7728 44.2361 55.0479 45.0621C54.2808 45.9304 53.2777 46.3603 52.0386 46.3603C50.7994 46.3603 49.8469 45.9388 49.0714 45.0874C48.3128 44.2614 47.9419 43.2498 47.9419 42.0529C47.9419 40.7632 48.2959 39.7011 49.004 38.8665M50.1925 44.0928C50.6477 44.6575 51.2631 44.9441 52.0386 44.9441C52.8141 44.9441 53.4716 44.6491 53.9183 44.059C54.3398 43.5111 54.5421 42.8031 54.5421 41.9517C54.5421 41.1003 54.3314 40.4007 53.9183 39.8444C53.4631 39.2374 52.8393 38.9424 52.047 38.9424C51.204 38.9424 50.5634 39.2459 50.1251 39.8612C49.7289 40.4176 49.535 41.1593 49.535 42.0697C49.535 42.8789 49.7542 43.5533 50.1841 44.0928" fill="#32312F"/>
<path d="M63.5363 39.0267H62.432V37.6696H66.1241V39.0267H65.0535V44.8514H65.8459V46.217H62.1623V44.8514H62.668L59.7262 40.4513V44.8514H60.8388V46.217H57.1468V44.8514H58.2089V39.0267H57.1468V37.6696H59.684L63.5363 43.41V39.0267Z" fill="#32312F"/>
<path d="M33.2326 73.7474C32.3812 73.7474 30.9061 73.25 30.2654 72.1374C29.9283 72.3565 29.5068 72.4998 28.9842 72.4998C28.2171 72.4998 27.6186 72.2722 27.214 71.8086C26.5059 71.0247 26.6239 69.8699 26.6239 69.8193C26.6239 69.7181 26.801 67.1303 28.352 67.1303C28.352 67.1303 28.3688 67.1303 28.3773 67.1303C28.7313 67.1303 29.0095 67.2483 29.1865 67.4675C29.4646 67.8131 29.3972 68.2851 29.3803 68.3779C29.3719 68.538 29.2792 69.9626 28.3435 70.3335C28.2592 70.3672 28.1581 70.3335 28.1244 70.2408C28.0906 70.1565 28.1328 70.0553 28.2171 70.0216C28.9842 69.7181 29.0432 68.3694 29.0432 68.3526V68.3273C29.0432 68.3273 29.119 67.9311 28.9167 67.6782C28.8071 67.5433 28.6217 67.4675 28.3688 67.4675H28.3604C27.1213 67.4675 26.9611 69.8193 26.9611 69.8446C26.9611 69.8614 26.86 70.9151 27.4669 71.581C27.8125 71.9603 28.3182 72.1542 28.9842 72.1542C29.4141 72.1542 29.7934 72.0446 30.1137 71.8255C30.0126 71.5642 29.9535 71.2691 29.9535 70.9488C29.9535 69.6675 30.4425 68.9511 31.4118 68.8246C31.4455 68.3526 31.5636 66.7594 31.6647 64.6183C31.7406 62.8988 32.4655 61.6681 33.0556 60.9347C32.6341 60.7914 32.1368 60.7071 31.572 60.7071C28.7819 60.7071 28.5543 63.0758 28.5458 63.1769C28.5458 63.1938 28.4615 63.708 28.6723 64.003C28.7481 64.1126 28.8662 64.1716 29.0095 64.1969C29.2455 64.2306 29.4309 64.1884 29.5658 64.0536C29.8777 63.7585 29.8861 63.0758 29.8693 62.8313C29.8608 62.7386 29.9283 62.6543 30.021 62.6459C30.1137 62.6459 30.198 62.7049 30.2064 62.7976C30.2064 62.8397 30.2992 63.826 29.8018 64.2896C29.5911 64.4919 29.3045 64.5678 28.9673 64.5172C28.7229 64.4835 28.5374 64.3739 28.4025 64.1884C28.1075 63.7754 28.2087 63.1516 28.2087 63.1263C28.2087 63.1095 28.4784 60.3615 31.572 60.3615C32.2379 60.3615 32.8111 60.4711 33.2916 60.6565C33.5866 60.3362 33.8058 60.1592 33.8395 60.1423C33.9154 60.0833 34.0165 60.1002 34.0755 60.1761C34.1345 60.2519 34.1177 60.3531 34.0418 60.4121C34.0418 60.4121 33.8648 60.5469 33.6288 60.7998C34.0334 60.9937 34.3705 61.2466 34.6403 61.5163C35.0786 61.0106 35.6181 60.7071 36.2587 60.7071C38.3661 60.7071 38.9224 62.3087 38.9224 63.2528V63.3202C38.9224 63.8176 38.9224 64.5003 38.5262 64.8965C38.3155 65.1072 38.0289 65.2084 37.658 65.2084C36.6212 65.2084 36.3515 64.3149 36.3515 63.8428C36.3515 63.7501 36.4273 63.6743 36.52 63.6743C36.6128 63.6743 36.6886 63.7501 36.6886 63.8428C36.6886 63.885 36.7055 64.8712 37.658 64.8712C37.9362 64.8712 38.1385 64.8038 38.2818 64.6521C38.5852 64.3486 38.5852 63.7501 38.5852 63.3118V63.2444C38.5852 61.4995 37.1185 61.0359 36.2587 61.0359C35.7108 61.0359 35.2472 61.3056 34.8679 61.7608C35.4495 62.4604 35.6771 63.2359 35.6771 63.6658C35.6771 64.4076 34.7752 65.9249 33.9069 66.4728C34.8089 66.8606 36.3346 67.8384 36.3346 70.0722C36.3346 70.4262 36.2925 71.1258 36.0396 71.817C36.4273 72.0193 36.8741 72.1374 37.3883 72.1374C37.9868 72.1374 38.4335 71.9603 38.737 71.6232C39.2933 70.9825 39.15 69.9457 39.15 69.9373C39.0826 69.3557 38.7285 67.8468 37.9109 67.8468C37.4641 67.8468 37.3798 68.1671 37.3798 68.7909C37.3798 69.1112 37.6243 69.7181 37.717 69.9204C37.7592 70.0047 37.717 70.1059 37.6327 70.148C37.5484 70.1902 37.4473 70.148 37.4051 70.0637C37.3883 70.03 37.0427 69.2545 37.0427 68.7909C37.0427 68.3694 37.0427 67.5012 37.9109 67.5012C39.1837 67.5012 39.4703 69.7856 39.4788 69.8867C39.4788 69.9289 39.6473 71.0837 38.9899 71.8423C38.6274 72.2638 38.0879 72.483 37.3883 72.483C36.8235 72.483 36.3262 72.3565 35.9047 72.1374C35.5001 72.9803 34.7162 73.7305 33.2242 73.7305M30.5183 71.9182C31.1084 73.014 32.6172 73.3933 33.2242 73.3933C33.8311 73.3933 35.0196 73.2248 35.6265 71.9772C34.0334 70.9404 33.4433 68.5127 33.3422 66.6835C33.3422 66.6835 33.3253 66.6835 33.3169 66.6835C32.6172 66.6835 32.0862 66.7341 31.9092 66.7594H31.8839C31.8249 67.7625 31.7743 68.479 31.749 68.7993C32.3728 68.7993 33.2326 69.3894 33.2326 70.3419C33.2326 71.0668 32.769 71.4714 32.5751 71.6485C32.5498 71.6737 32.5245 71.6906 32.5161 71.7075C32.4908 71.7665 32.4318 71.8086 32.3644 71.8086C32.2716 71.8086 32.1958 71.7328 32.1958 71.64C32.1958 71.5389 32.2632 71.4883 32.3559 71.3956C32.5498 71.227 32.8954 70.9235 32.8954 70.3503C32.8954 69.617 32.2126 69.1449 31.749 69.1449H31.7321C31.6816 69.6254 31.4624 71.1005 30.5352 71.9266M33.6962 66.7594C33.8058 68.479 34.3453 70.7044 35.7698 71.6737C35.9216 71.2523 36.0059 70.7381 36.0059 70.0975C36.0059 67.948 34.497 67.0797 33.6962 66.7678M31.3865 69.1786C30.9145 69.2545 30.2907 69.5748 30.2907 70.9657C30.2907 71.2017 30.3244 71.4209 30.3919 71.6147C30.6532 71.3619 30.8639 71.0247 31.0409 70.6032C31.2685 70.0384 31.3528 69.4652 31.3865 69.1786ZM33.3927 61.0864C32.828 61.7692 32.0778 62.9662 32.0019 64.6521C31.9682 65.3011 31.9429 65.8996 31.9092 66.4391L33.241 66.2789H33.2663C33.2663 66.2789 33.2916 66.2874 33.3337 66.3042C33.3337 66.2368 33.3337 66.1778 33.3337 66.1103C33.3337 64.4835 33.7046 62.8397 34.438 61.8114C34.1682 61.5332 33.8226 61.2803 33.3927 61.0949M34.6656 62.0727C34.0081 63.0505 33.6625 64.6099 33.6625 66.1103C33.6625 66.1609 33.6625 66.2115 33.6625 66.2621C34.3958 65.8575 35.3399 64.4076 35.3399 63.6995C35.3399 63.3371 35.1545 62.6796 34.6656 62.0727Z" fill="#32312F"/>
<path d="M33.2326 73.8232C32.3812 73.8232 30.9145 73.3343 30.2317 72.2469C29.8693 72.4661 29.4478 72.5757 28.9842 72.5757C28.1918 72.5757 27.5765 72.3312 27.155 71.8592C26.4301 71.05 26.5396 69.8614 26.5481 69.8109C26.5481 69.7013 26.7335 67.0544 28.3604 67.0544H28.3857C28.765 67.0544 29.06 67.1809 29.2539 67.4253C29.5405 67.7794 29.4899 68.2598 29.4646 68.3947C29.4478 68.656 29.3298 70.0384 28.3773 70.4178C28.2508 70.4683 28.1075 70.4093 28.0569 70.2745C28.0064 70.148 28.0738 69.9963 28.2002 69.9541C28.9167 69.676 28.9757 68.3694 28.9757 68.361V68.3273C28.9926 68.2598 29.0347 67.9395 28.8662 67.7372C28.7734 67.6192 28.6048 67.5602 28.3773 67.5518C27.2056 67.5518 27.0538 69.8277 27.0538 69.853C27.0538 69.8699 26.9527 70.8814 27.5343 71.5304C27.8631 71.8929 28.352 72.0784 28.9926 72.0784C29.3803 72.0784 29.726 71.9856 30.021 71.8002C29.9283 71.5389 29.8777 71.2523 29.8777 70.9572C29.8777 69.6591 30.3666 68.9173 31.3444 68.7656C31.4034 68.007 31.5046 66.515 31.5888 64.6268C31.6647 62.9578 32.3391 61.7439 32.9291 60.9937C32.5161 60.8673 32.0609 60.8083 31.5804 60.8083C28.9252 60.8083 28.6554 62.9578 28.6301 63.2022C28.6217 63.2612 28.5627 63.7164 28.7481 63.9693C28.8156 64.062 28.9083 64.1126 29.0347 64.1294C29.2455 64.1632 29.4056 64.1294 29.5236 64.0114C29.8102 63.7417 29.8187 63.0673 29.8018 62.8566C29.8018 62.7892 29.8187 62.7217 29.8608 62.6712C29.903 62.6206 29.962 62.5869 30.0294 62.5784C30.1727 62.5784 30.2907 62.6712 30.2992 62.806C30.2992 62.8482 30.4003 63.8681 29.8693 64.3655C29.6332 64.5846 29.3298 64.6689 28.9673 64.6183C28.706 64.5846 28.4953 64.4582 28.352 64.2559C28.0401 63.8344 28.1328 63.2022 28.1497 63.1348C28.1497 63.1179 28.4278 60.3025 31.5888 60.3025C32.2042 60.3025 32.7774 60.3952 33.2916 60.5807C33.5613 60.2941 33.7721 60.1255 33.8058 60.0918C33.9154 60.0075 34.0755 60.0328 34.1514 60.1423C34.1935 60.1929 34.2104 60.2603 34.202 60.3278C34.1935 60.3952 34.1598 60.4542 34.1092 60.4964C34.0755 60.5301 33.9491 60.6312 33.7805 60.7998C34.1008 60.9684 34.3958 61.1792 34.6571 61.4236C35.1208 60.9094 35.6687 60.6565 36.284 60.6565C38.4504 60.6565 39.032 62.3087 39.032 63.2781V63.3455C39.032 63.8597 39.032 64.5593 38.6105 64.9808C38.3829 65.2084 38.0795 65.318 37.6917 65.318C36.5959 65.318 36.3009 64.3739 36.3009 63.8681C36.3009 63.7333 36.4105 63.6152 36.5538 63.6152C36.6971 63.6152 36.8066 63.7248 36.8066 63.8681C36.8066 63.9609 36.8488 64.8207 37.7002 64.8207C37.953 64.8207 38.1385 64.7616 38.2734 64.6268C38.5515 64.3486 38.5515 63.767 38.5515 63.3455V63.2781C38.5515 61.6006 37.1354 61.1539 36.3009 61.1539C35.8288 61.1539 35.3905 61.373 35.0196 61.7945C35.5591 62.4604 35.8035 63.2275 35.8035 63.6911C35.8035 64.3992 34.9859 65.849 34.1177 66.4812C35.0533 66.9111 36.461 67.9227 36.461 70.0975C36.461 70.4431 36.4273 71.1174 36.1829 71.8002C36.5622 71.9856 36.9837 72.0784 37.4388 72.0784C38.012 72.0784 38.4419 71.9098 38.7285 71.5895C39.2512 70.991 39.1332 70.0047 39.1247 69.9626C39.0657 69.44 38.7201 67.9395 37.9699 67.9395C37.6243 67.9395 37.5231 68.1334 37.5231 68.8078C37.5231 69.0859 37.7254 69.6254 37.8519 69.9036C37.9109 70.03 37.8519 70.1817 37.7255 70.2323C37.599 70.2913 37.4557 70.2323 37.3967 70.1059C37.3546 70.0216 37.0258 69.2629 37.0258 68.7993C37.0258 68.3947 37.0258 67.4338 37.9699 67.4338C39.3186 67.4338 39.6136 69.7856 39.6221 69.8867C39.6221 69.8951 39.8075 71.1006 39.1079 71.9013C38.7285 72.3397 38.1638 72.5673 37.4473 72.5673C36.9247 72.5673 36.4358 72.4577 35.9974 72.2469C35.4664 73.2838 34.556 73.8148 33.2832 73.8148M30.3413 72.0109L30.3834 72.0868C31.0072 73.1658 32.4571 73.6547 33.2832 73.6547C34.5223 73.6547 35.3989 73.132 35.8878 72.1121L35.9216 72.0362L35.9974 72.0699C36.4358 72.2891 36.9162 72.4071 37.4473 72.4071C38.1216 72.4071 38.6358 72.2048 38.9899 71.8002C39.6221 71.0668 39.4619 69.9204 39.4619 69.912C39.4535 69.8109 39.1753 67.5939 37.9699 67.5939C37.186 67.5939 37.186 68.3779 37.186 68.7993C37.186 69.2208 37.5063 69.9542 37.54 70.0384C37.5653 70.0806 37.6159 70.1059 37.658 70.0806C37.7002 70.0637 37.7254 70.0047 37.7002 69.9626C37.7002 69.9626 37.363 69.2039 37.363 68.7993C37.363 68.2598 37.4136 67.7709 37.9699 67.7709C39.0151 67.7709 39.2849 69.912 39.2849 69.9289C39.2849 69.971 39.4198 71.0247 38.855 71.6822C38.5431 72.0446 38.0626 72.2301 37.4473 72.2301C36.9415 72.2301 36.4779 72.1205 36.0564 71.9013L35.9974 71.8676L36.0227 71.8002C36.2756 71.1174 36.3093 70.4346 36.3093 70.0806C36.3093 67.8974 34.8173 66.9364 33.9322 66.5571L33.7889 66.4981L33.9154 66.4138C34.7752 65.8743 35.6434 64.3655 35.6434 63.6743C35.6434 63.2359 35.3989 62.4688 34.851 61.8198L34.8089 61.7692L34.851 61.7186C35.2725 61.2213 35.7614 60.9684 36.3009 60.9684C37.1944 60.9684 38.7117 61.4489 38.7117 63.2528V63.3202C38.7117 63.7754 38.7117 64.3907 38.3914 64.7195C38.2312 64.8797 38.0036 64.9555 37.7086 64.9555C36.8909 64.9555 36.6633 64.2559 36.6549 63.8428C36.6549 63.7923 36.6128 63.7501 36.5706 63.7501C36.5285 63.7501 36.4779 63.7923 36.4779 63.8428C36.4779 64.2896 36.7308 65.1325 37.7086 65.1325C38.0542 65.1325 38.3239 65.0314 38.5178 64.8375C38.8971 64.4582 38.8971 63.8007 38.8971 63.3118V63.2444C38.8971 62.3255 38.3492 60.783 36.3093 60.783C35.7193 60.783 35.1966 61.0443 34.7499 61.5585L34.6909 61.6259L34.6319 61.5669C34.3453 61.2803 34.0081 61.0443 33.6372 60.8673L33.536 60.8167L33.6119 60.7408C33.8226 60.5132 33.9912 60.3784 34.0334 60.3446C34.0587 60.3278 34.0671 60.3025 34.0755 60.2856C34.0755 60.2604 34.0755 60.2351 34.0587 60.2182C34.0334 60.1761 33.9744 60.176 33.9322 60.2013C33.8901 60.2351 33.6793 60.4036 33.4012 60.7071L33.3675 60.7492L33.3169 60.7324C32.8111 60.5385 32.2379 60.4458 31.6226 60.4458C28.6048 60.4458 28.3435 63.1095 28.3435 63.1348C28.3435 63.1685 28.2424 63.767 28.5205 64.1463C28.6386 64.3149 28.8156 64.416 29.0347 64.4413C29.3466 64.4919 29.6079 64.416 29.8018 64.2306C30.2739 63.7838 30.1811 62.8145 30.1811 62.806C30.1811 62.7554 30.139 62.7217 30.08 62.7217C30.0547 62.7217 30.0378 62.7386 30.021 62.7554C30.0041 62.7723 29.9957 62.7976 30.0041 62.8229C30.0041 62.8313 30.08 63.7248 29.6754 64.1042C29.5236 64.2475 29.3213 64.3065 29.0516 64.2643C28.883 64.239 28.7481 64.1632 28.6554 64.0367C28.4363 63.7333 28.4953 63.2528 28.5121 63.1516C28.5206 63.0505 28.7734 60.6144 31.6226 60.6144C32.1705 60.6144 32.6762 60.6902 33.1314 60.8504L33.241 60.8841L33.1651 60.9768C32.5835 61.7018 31.867 62.9156 31.7912 64.6099C31.6984 66.5571 31.5973 68.0828 31.5383 68.8162V68.8836L31.4708 68.8921C30.552 69.0101 30.08 69.7013 30.08 70.932C30.08 71.227 30.1306 71.5136 30.2401 71.7749L30.2654 71.8339L30.2149 71.8676C29.8777 72.0952 29.4815 72.2132 29.0432 72.2132C28.352 72.2132 27.8209 72.0109 27.4669 71.6147C26.8347 70.9151 26.9443 69.8277 26.9443 69.8109C26.9443 69.7181 27.1128 67.3663 28.4194 67.3663C28.706 67.3663 28.9083 67.4506 29.0432 67.6108C29.2455 67.8552 29.2033 68.2177 29.1865 68.3189V68.3441C29.1865 68.3441 29.1359 69.7518 28.3098 70.0722C28.2677 70.089 28.2424 70.1396 28.2592 70.1902C28.2761 70.2323 28.3267 70.2576 28.3773 70.2408C29.2539 69.8951 29.3551 68.5127 29.3635 68.3526C29.3803 68.2598 29.4394 67.8131 29.1865 67.5012C29.0263 67.2989 28.7734 67.1977 28.4447 67.1893L28.4194 67.105V67.1893C26.9443 67.1893 26.7757 69.6928 26.7672 69.8024C26.7672 69.853 26.6577 70.9825 27.332 71.7327C27.7282 72.1711 28.3014 72.3902 29.0432 72.3902C29.5068 72.3902 29.9198 72.2722 30.2739 72.0446L30.3413 72.0025V72.0109ZM33.2832 73.4776C32.6678 73.4776 31.1252 73.0983 30.5099 71.9603L30.4762 71.9013L30.5267 71.8592C31.4371 71.05 31.6479 69.5664 31.6984 69.1281V69.0522H31.7827C32.3053 69.0522 33.0303 69.5495 33.0303 70.3335C33.0303 70.9404 32.6594 71.2691 32.4571 71.4462C32.3644 71.5305 32.3222 71.5642 32.3222 71.6232C32.3222 71.6737 32.3644 71.7159 32.4149 71.7159C32.4486 71.7159 32.4824 71.699 32.4992 71.6653L32.5161 71.64C32.5161 71.64 32.5498 71.6147 32.5667 71.5979L32.5835 71.581C32.769 71.4124 33.2157 71.0331 33.2157 70.3419C33.2157 69.44 32.3981 68.8836 31.8164 68.8836H31.7321V68.7993C31.7827 68.1756 31.8249 67.4675 31.867 66.7594V66.692L31.9682 66.6835C32.162 66.6583 32.6931 66.6077 33.3843 66.6077H33.4602L33.4855 66.6835C33.536 67.6023 33.8564 70.6875 35.7361 71.9182L35.7951 71.9603L35.7614 72.0278C35.1461 73.3006 33.9491 73.4861 33.2916 73.4861M30.6869 71.9435C31.2517 72.9213 32.651 73.3259 33.2916 73.3259C33.9322 73.3259 35.0028 73.1573 35.5844 72.0194C33.7383 70.7634 33.3927 67.7878 33.3253 66.7763C32.71 66.7763 32.2295 66.8184 32.0187 66.8437C31.9766 67.5012 31.9345 68.1503 31.8923 68.7319C32.5329 68.7909 33.3675 69.3978 33.3675 70.3503C33.3675 71.1174 32.887 71.5305 32.6847 71.7159L32.6678 71.7327C32.6678 71.7327 32.6425 71.7496 32.6341 71.758C32.5919 71.8423 32.5077 71.8929 32.4149 71.8929C32.2801 71.8929 32.162 71.7833 32.162 71.64C32.162 71.4967 32.2463 71.4293 32.3559 71.3366C32.5414 71.1764 32.8701 70.8898 32.8701 70.3503C32.8701 69.6928 32.2885 69.2629 31.8502 69.2292C31.7912 69.7434 31.5551 71.1343 30.6869 71.9435ZM35.8626 71.7918L35.7783 71.7327C35.3399 71.4293 33.8816 70.1902 33.6709 66.7594V66.633L33.7805 66.6751C34.6656 67.0207 36.1491 67.9142 36.1491 70.0806C36.1491 70.6875 36.0649 71.2354 35.9047 71.6822L35.871 71.7833L35.8626 71.7918ZM33.8311 66.8774C33.9069 67.8384 34.2441 70.4093 35.7783 71.5389C35.9131 71.1258 35.9806 70.6369 35.9806 70.089C35.9806 68.1081 34.6909 67.2399 33.8395 66.8774M30.4172 71.7496L30.375 71.6316C30.3076 71.4209 30.2739 71.1933 30.2739 70.9572C30.2739 69.8446 30.6616 69.2124 31.4371 69.0944L31.5383 69.0775V69.1786C31.4961 69.4737 31.4034 70.0637 31.1758 70.6285C30.9988 71.0584 30.7796 71.404 30.5099 71.6653L30.4172 71.758V71.7496ZM31.3528 69.2714C30.7459 69.4231 30.434 69.9879 30.434 70.9572C30.434 71.1258 30.4509 71.2944 30.493 71.4546C30.7038 71.227 30.8808 70.932 31.0241 70.5695C31.2264 70.0806 31.3107 69.5833 31.3528 69.2714ZM31.8839 66.4307C31.9176 65.8996 31.9513 65.2927 31.985 64.6436C32.0609 62.9662 32.7943 61.7524 33.3927 61.0359L33.4349 60.9853L33.4939 61.0106C33.8985 61.196 34.2525 61.4405 34.556 61.7439L34.6066 61.7945L34.5644 61.8535C33.8816 62.8229 33.477 64.4076 33.477 66.1103V66.4054L33.3759 66.3801C33.3422 66.3717 33.3169 66.3632 33.3169 66.3632H33.3L31.8839 66.5318V66.4307ZM33.477 61.1792C32.9038 61.8872 32.2211 63.0505 32.1452 64.6521C32.1199 65.2674 32.0862 65.8322 32.0609 66.3464L33.3084 66.1946V66.1019C33.3084 64.4076 33.7131 62.806 34.3874 61.8114C34.1261 61.5585 33.8142 61.3393 33.477 61.1792ZM33.6541 66.3885V66.2536C33.6541 66.2031 33.6541 66.1525 33.6541 66.1019C33.6541 64.4919 34.0334 62.9662 34.6656 62.0221L34.7246 61.9294L34.792 62.0137C35.2725 62.6121 35.4832 63.2865 35.4832 63.6911C35.4832 64.4329 34.5223 65.908 33.7636 66.3211L33.6456 66.3885H33.6541ZM34.733 62.1991C34.1514 63.1263 33.8058 64.5678 33.8058 66.0935C34.4886 65.6383 35.3231 64.3317 35.3231 63.6827C35.3231 63.3202 35.1376 62.7386 34.733 62.1907" fill="#32312F"/>
<path d="M14.6626 30.454C14.7722 30.7406 14.8312 31.0272 14.8312 31.3138C14.8312 31.6931 14.7385 32.064 14.553 32.4433C14.081 33.3959 13.0863 33.8679 11.5606 33.8679H7.31219V32.5024H8.3743V26.6776H7.31219V25.3121H11.5185C12.766 25.3121 13.6258 25.683 14.081 26.4248C14.317 26.7957 14.4266 27.1918 14.4266 27.5964C14.4266 27.7819 14.4013 27.9673 14.3507 28.1443C14.2243 28.608 13.9714 28.9873 13.6005 29.2739C14.0979 29.5268 14.4519 29.923 14.6711 30.4456M9.94216 28.6923H11.3077C11.7545 28.6923 12.0664 28.667 12.2518 28.608C12.5553 28.5152 12.7576 28.3214 12.8587 28.0263C12.8925 27.9168 12.9093 27.8072 12.9093 27.706C12.9093 27.5206 12.8587 27.3436 12.7492 27.1665C12.6311 26.9727 12.412 26.8462 12.1001 26.7957C11.9484 26.7704 11.6449 26.7535 11.1813 26.7535H9.95902V28.6923H9.94216ZM11.5606 32.4096C11.9652 32.4096 12.2687 32.3759 12.471 32.3169C12.7492 32.2326 12.9599 32.0725 13.0863 31.8364C13.1791 31.6594 13.2296 31.4824 13.2296 31.2969C13.2296 31.1621 13.2043 31.0356 13.1538 30.9008C13.0358 30.572 12.825 30.3613 12.5131 30.2601C12.2602 30.1758 11.8894 30.1337 11.4089 30.1337H9.93373V32.4096H11.5606Z" fill="#32312F"/>
<path d="M18.6666 30.218C18.6666 30.9935 18.7762 31.5583 19.0038 31.9123C19.2819 32.3422 19.7624 32.5529 20.4368 32.5529C21.1785 32.5529 21.6927 32.3591 21.9793 31.9629C22.2406 31.6088 22.3671 31.0272 22.3671 30.218V26.6861H21.305V25.3205H24.9971V26.6861H23.9265V30.2264C23.9265 32.7468 22.797 34.0028 20.5295 34.0028C19.3241 34.0028 18.439 33.6572 17.8742 32.9744C17.3516 32.3506 17.0987 31.4318 17.0987 30.218V26.6776H16.0366V25.3121H19.7287V26.6776H18.6666V30.218Z" fill="#32312F"/>
<path d="M28.8324 26.7619V28.7597H31.1842V30.2011H28.8324V32.5024H29.8861V33.8679H26.2025V32.5024H27.2646V26.6776H26.2025V25.3205H32.6847L33.3422 27.2255L31.8839 27.7397L31.513 26.7619H28.8324Z" fill="#32312F"/>
<path d="M36.8994 26.7619V28.7597H39.2512V30.2011H36.8994V32.5024H37.9615V33.8679H34.2694V32.5024H35.3315V26.6776H34.2694V25.3205H40.7516L41.4091 27.2255L39.9508 27.7397L39.5799 26.7619H36.8994Z" fill="#32312F"/>
<path d="M48.1442 32.4181H44.9663V30.1758H47.3181V28.7344H44.9663V26.7619H47.6721L48.0515 27.7397L49.5097 27.2255L48.8522 25.3205H42.3363V26.6776H43.3984V32.5024H42.3363V33.8679H49.5097V31.4487H48.1442V32.4181Z" fill="#32312F"/>
<path d="M58.1667 25.3205H50.8837L50.2178 27.2255L51.6761 27.7397L52.0554 26.7619H53.7497V32.5024H52.6876V33.8679H56.3713V32.5024H55.3092V26.7619H56.995L57.3744 27.7397L58.8326 27.2255L58.1667 25.3205Z" fill="#32312F"/>
</svg>
