<svg width="34" height="34" viewBox="0 0 34 34" fill="none" xmlns="http://www.w3.org/2000/svg">
<g opacity="1">
<path fill-rule="evenodd" clip-rule="evenodd" d="M22.2075 7.5451C22.3857 7.62637 22.5 7.80418 22.5 8.00001V26C22.5 26.1958 22.3857 26.3736 22.2075 26.4549C22.0293 26.5362 21.8201 26.506 21.6722 26.3776L15.3333 20.875H10C9.72386 20.875 9.5 20.6511 9.5 20.375V13.625C9.5 13.3489 9.72386 13.125 10 13.125H15.3333L21.6722 7.62242C21.8201 7.49405 22.0293 7.46383 22.2075 7.5451ZM21.5 9.09614L15.8478 14.0026C15.7568 14.0815 15.6404 14.125 15.52 14.125H10.5V19.875H15.52C15.6404 19.875 15.7568 19.9185 15.8478 19.9974L21.5 24.9039V9.09614Z" fill="#FCFBF8"/>
<path fill-rule="evenodd" clip-rule="evenodd" d="M17 1.5C8.43959 1.5 1.5 8.43959 1.5 17C1.5 25.5604 8.43959 32.5 17 32.5C25.5604 32.5 32.5 25.5604 32.5 17C32.5 8.43959 25.5604 1.5 17 1.5ZM0.5 17C0.5 7.8873 7.8873 0.5 17 0.5C26.1127 0.5 33.5 7.8873 33.5 17C33.5 26.1127 26.1127 33.5 17 33.5C7.8873 33.5 0.5 26.1127 0.5 17Z" fill="#FCFBF8"/>
<path fill-rule="evenodd" clip-rule="evenodd" d="M28.3536 28.3536C28.1583 28.5488 27.8417 28.5488 27.6464 28.3536L5.64645 6.35355C5.45119 6.15829 5.45119 5.84171 5.64645 5.64645C5.84171 5.45118 6.15829 5.45118 6.35356 5.64645L28.3536 27.6464C28.5488 27.8417 28.5488 28.1583 28.3536 28.3536Z" fill="#FCFBF8"/>
</g>
</svg>
